<svg width="92" height="74" viewBox="0 0 92 74" fill="none" xmlns="http://www.w3.org/2000/svg">
<path fill-rule="evenodd" clip-rule="evenodd" d="M34.1983 0.125288C32.0061 0.45161 30.5451 0.917975 28.6997 1.8802C26.7036 2.92082 23.46 5.49579 22.3831 6.89488L21.6514 7.84541L22.867 10.4592C23.5356 11.8968 23.9978 13.2095 23.8937 13.3764C23.7896 13.543 23.2894 13.9828 22.7822 14.3538C22.275 14.7245 21.7163 15.4396 21.5403 15.9426C21.2421 16.7959 21.3081 17.043 22.5167 19.601L23.813 22.3442L27.2674 22.9421C29.1672 23.2708 30.9608 23.4557 31.2529 23.3529C31.5453 23.2501 32.1032 22.8743 32.4929 22.5182L33.2015 21.8706L33.6648 23.2524C34.5612 25.9263 34.1586 30.4225 32.7263 33.733C32.1729 35.0115 32.0997 35.0643 30.5274 35.3226C28.2118 35.7032 24.8998 38.7899 23.162 42.1876C22.6084 43.27 22.4155 43.443 21.9153 43.3072C20.847 43.017 16.9481 41.0118 16.5018 40.5231C16.0882 40.0705 16.141 40.0272 17.4872 39.7179C20.0466 39.1298 22.2686 37.9 24.1638 36.0226C26.8259 33.3849 28.1426 30.3321 28.1568 26.7647L28.1633 25.1038H14.0816H0V26.9156C0 31.6863 2.97458 36.3779 7.33157 38.479C8.38863 38.9887 9.67609 39.488 10.1924 39.5885C10.8018 39.707 11.6489 40.2592 12.6064 41.1622C15.4142 43.8097 17.1871 44.9053 20.3848 45.9693C22.4338 46.6512 22.2388 46.3573 24.9655 52.8731C26.0052 55.3577 27.5836 59.1035 28.4733 61.197C29.3628 63.2904 30.0491 65.0249 29.9987 65.0514C29.948 65.078 28.8687 65.061 27.5997 65.0134L25.2928 64.9273L22.3831 58.2359C18.3863 49.0452 17.7549 47.6913 17.4634 47.6913C17.3244 47.6913 16.6657 47.9227 16 48.2055L14.7892 48.7197L15.9385 51.3278C19.9557 60.4425 21.4577 63.8976 21.4577 64.0236C21.4577 64.1025 20.7636 64.1689 19.9155 64.1713C17.7713 64.178 14.9051 64.8248 13.5594 65.606C11.102 67.0328 9.44569 69.6226 9.18766 72.441L9.04497 73.999H10.5288C12.1207 73.999 12.3328 73.818 12.3441 72.4492C12.3535 71.3103 13.2762 69.6104 14.3085 68.8304C15.4244 67.9873 17.3555 67.3556 18.8182 67.3556C20.0058 67.3556 20.0335 67.4146 19.317 68.4114C18.7074 69.2599 17.9708 71.8383 17.9708 73.1247V73.999H19.441C21.0482 73.999 20.9465 74.1162 21.3148 71.8364C21.5208 70.5606 22.4448 69.2407 23.6043 68.5658C24.8303 67.8523 28.3781 67.8278 30.6875 68.5166L32.2727 68.9896L33.293 67.9735L34.313 66.957L32.8872 63.6255C32.1032 61.7933 30.0328 56.9037 28.2867 52.7599L25.1117 45.2255L26.0277 43.4687C27.2202 41.1816 29.5513 38.8011 30.971 38.4208C32.6903 37.9603 33.8973 38.44 35.8014 40.3402C38.3916 42.925 40.7981 48.0718 42.6553 54.999C43.1255 56.7528 43.5509 58.2311 43.6008 58.2842C43.6504 58.3371 44.3011 58.2356 45.0467 58.0584C46.0276 57.8253 46.4023 57.609 46.4023 57.2766C46.4023 56.4671 44.5993 50.2981 43.6346 47.805C43.1212 46.479 42.2031 44.4124 41.5939 43.2126L40.4867 41.0306L41.6685 39.3785C44.7418 35.0811 45.9592 30.609 45.3303 25.926C45.0384 23.7547 44.1817 20.6955 43.7376 20.239C43.5034 19.9985 41.0379 21.0997 41.0379 21.4449C41.0379 21.5666 41.2839 22.3893 41.5843 23.2732C43.0675 27.6349 42.3589 32.6834 39.689 36.7757L38.6263 38.4049L36.9344 37.1355L35.2427 35.8661L35.8312 34.4045C37.5867 30.0433 37.7492 25.0315 36.2571 21.2632C35.5477 19.4713 35.475 19.0876 35.7802 18.7387C36.7067 17.6795 36.5361 16.8913 34.4118 12.415C33.1742 9.80706 32.2113 8.0968 31.9806 8.0968C31.4957 8.0968 30.0408 8.93944 30.0408 9.22059C30.0408 9.33725 30.8753 11.0826 31.895 13.0995L33.749 16.7661L32.0372 18.643L30.3254 20.5196L28.0254 20.0541C26.7605 19.7982 25.6862 19.5438 25.6382 19.4896C25.5899 19.4352 25.2903 18.8003 24.9725 18.0789L24.3942 16.7675L25.4427 15.6872C27.3669 13.7054 27.4777 13.0275 26.2854 10.5309C25.8432 9.60431 25.4811 8.68965 25.4811 8.49832C25.4811 7.92168 28.4009 5.4623 30.0864 4.61939C33.8421 2.74118 37.1122 2.59184 40.0176 4.16631C43.4098 6.00467 45.2503 9.9782 44.2732 13.3538C43.8556 14.7965 44.4727 15.7805 46.7199 17.2553C56.6524 23.7746 61.6647 36.6162 59.0138 48.7542C57.1379 57.3451 51.9293 64.4426 44.8094 68.1106C40.6265 70.2657 39.2309 70.6018 33.863 70.7461L29.2362 70.8705V72.4346V73.999H45.1953H61.1545V72.3924V70.7857L53.9123 70.8644C49.9292 70.9077 46.6751 70.8832 46.6813 70.8102C46.6875 70.7371 47.534 70.1583 48.5623 69.5243C50.9479 68.0529 54.3361 64.897 56.3652 62.2562C58.7392 59.1667 60.3555 56.4052 63.572 49.9431C65.1744 46.724 67.0779 43.1964 67.8019 42.1039C69.3811 39.7216 71.7023 37.4945 73.3667 36.7653C78.6702 34.4409 85.0558 36.8652 87.7125 42.2113C88.4544 43.7047 88.6322 44.4054 88.728 46.213C88.9208 49.8535 87.8332 52.6206 85.2786 54.9881C80.9262 59.0214 74.2443 59.0405 69.9248 55.0319C69.5118 54.6485 69.0893 54.3365 68.9861 54.3386C68.8831 54.3407 68.316 54.7492 67.726 55.2458L66.6531 56.1493L67.4577 56.9896C71.7412 61.4627 79.4137 62.4138 85.0161 59.1659C86.6946 58.1926 89.3014 55.5352 90.1954 53.8858C91.0958 52.2244 92 48.8576 92 47.1662C92 41.8472 88.8779 36.7454 84.2049 34.4282C81.5359 33.1048 79.6122 32.7073 76.7114 32.8805C71.4754 33.193 67.6238 36.0125 64.2235 42.0221L62.898 44.3645L62.7306 40.6469C62.4251 33.851 60.381 27.8122 56.5701 22.4465C54.7928 19.9443 51.3288 16.5267 49.1706 15.1467L47.5208 14.0918L47.5388 11.8163C47.567 8.28068 46.313 5.31588 43.8199 3.02259C41.3018 0.70645 37.6599 -0.390237 34.1983 0.125288ZM35.2041 6.51063C34.4839 6.79735 34.4863 6.77822 35.0351 7.91875C35.4476 8.77548 35.5281 8.81508 36.6131 8.6939C37.529 8.59159 37.8694 8.67796 38.3243 9.12864C39.1429 9.93967 39.063 11.1054 38.1368 11.8633C37.3898 12.4748 37.3863 12.492 37.8015 13.4753C38.0325 14.0219 38.3771 14.4702 38.5673 14.4718C38.7575 14.4731 39.4213 14.0046 40.0425 13.4306C41.157 12.4004 41.172 12.3626 41.172 10.5673C41.172 8.52383 40.642 7.55098 39.0718 6.71285C38.1564 6.22416 36.1826 6.12106 35.2041 6.51063ZM9.487 10.029C9.17291 10.9394 8.71211 12.2181 8.46266 12.8707C7.72424 14.8042 7.86721 17.3021 8.84273 19.504C9.29468 20.5241 9.73805 21.7231 9.82791 22.1682C9.98374 22.9413 10.0519 22.9779 11.3353 22.9779H12.6794L12.5211 21.8342C12.4339 21.205 11.9951 19.8784 11.5459 18.8862C10.4665 16.503 10.4668 15.0553 11.5467 12.5409C11.9967 11.4937 12.4356 10.1251 12.5219 9.49961L12.6794 8.36253L11.3688 8.36811L10.0583 8.37396L9.487 10.029ZM15.4522 8.68008C15 10.2604 14.6983 11.1166 14.0712 12.5999C13.1313 14.8236 13.2268 17.2455 14.3491 19.6563C14.7573 20.5332 15.1679 21.6692 15.2615 22.1807C15.4292 23.0967 15.4522 23.1108 16.7684 23.1108H18.105L18.0135 22.0479C17.9631 21.4632 17.5513 20.1479 17.0989 19.1248C15.8691 16.3444 15.8492 15.2942 16.9765 12.5962C17.4942 11.3574 17.9598 9.92797 18.0113 9.41962L18.105 8.4954L16.8282 8.41435C15.9506 8.35854 15.5204 8.44172 15.4522 8.68008ZM24.8215 29.0234C24.7217 29.4255 24.4645 30.0234 24.2496 30.3521L23.8594 30.95H13.9346H4.00991L3.75054 30.2739C3.60785 29.9022 3.41688 29.3043 3.32595 28.9453L3.16046 28.2926H14.0816H25.0028L24.8215 29.0234ZM21.9942 33.8473C21.9942 34.1911 19.3935 35.8273 17.9708 36.3784C16.1555 37.0818 13.3387 37.2112 11.2653 36.6861C9.52964 36.2469 7.05342 34.9581 6.24313 34.0724C5.83892 33.6304 6.21952 33.6073 13.9059 33.6073C18.5384 33.6073 21.9942 33.7099 21.9942 33.8473Z" fill="#6C311B"/>
</svg>
