<svg id="Capa_1" data-name="Capa 1" xmlns="http://www.w3.org/2000/svg" viewBox="0 0 465.61 210.18"><defs><style>.cls-1{fill:#fff;}</style></defs><title>Rinku</title><path class="cls-1" d="M29.6,263.67h2.89a20.23,20.23,0,0,1,4,.36,4.92,4.92,0,0,1,1.08.18,5.94,5.94,0,0,0,1.45.18l12.25,6.49a201.17,201.17,0,0,0,4.69-27.76q1.44-14.42,1.44-29.56,0-8.3-.18-16.59t-.54-16.22q-.36-6.13-.54-12.44t-.18-12.8l-26.32,9a9.73,9.73,0,0,1-2.16.73h-1.8a3,3,0,0,1-.91-.18L21,163.8l-2.16-4.32q-.73-1.44-2.53-5-.72-2.16-2.16-6.13a19.42,19.42,0,0,1-1.44-5.77q0-1.8,2.16-5.95A24.36,24.36,0,0,1,18.43,131q1.8-.36,6.48-1.45c3.13-.72,6.37-1.44,9.74-2.16s6.54-1.44,9.55-2.16,5.11-1.2,6.31-1.44h.36a1.47,1.47,0,0,0,1.08-.36h-.72a6,6,0,0,1,1.81-.37,8.1,8.1,0,0,0,2.52-.72c1.2-.47,1.86-.66,2-.54s.06.54-.18,1.26a6.83,6.83,0,0,0,.54-2.16,7,7,0,0,1,.54-2.16,18.4,18.4,0,0,0,.9-4,4.75,4.75,0,0,1,2-3.24,28.4,28.4,0,0,1,3.06-1.62,9.36,9.36,0,0,1,2.35-.18H68.9a2.76,2.76,0,0,1,1.08.36q1.08,1.08,3.25,3.06c1.44,1.32,2.76,2.59,4,3.79h62.37a14.75,14.75,0,0,1,8.11,2,14,14,0,0,1,4.69,4.87,18.83,18.83,0,0,1,2.16,6.49,46.21,46.21,0,0,1,.54,6.85v5.76q0,12.63-6.31,26.14A100.34,100.34,0,0,1,132,194.09,96,96,0,0,1,108.2,213.2a58.06,58.06,0,0,1-27.4,7.93q.35,2.88.54,5.22c.11,1.57.29,3.19.54,4.87q1.8,15.51,3.06,31.55t2,31.9a20.86,20.86,0,0,0-.73,5.05c-.48,2.16-1,4.45-1.62,6.85a29.33,29.33,0,0,1-2.52,6.67,12.52,12.52,0,0,1-4.51,4.87,14.16,14.16,0,0,1-7.57,1.8q-7.57,0-10.64-2.7A49.61,49.61,0,0,1,52,308l.36.72c-.48,0-1-.59-1.44-1.8q-1.8-2.16-4.14-5.59t-4.87-7.21q-2.52-3.78-5-7.57c-1.68-2.52-3-4.62-4-6.31a32.6,32.6,0,0,1-2-3.24l-1.26-2.53Zm47.23-109.6q0,15.13.9,30.1t2.71,30.11a25.24,25.24,0,0,1,6.67-12.08q4.86-4.86,11-10.28,5-4.32,10.28-9.19a95.89,95.89,0,0,0,9.55-10.27,56.39,56.39,0,0,0,7.21-11.72A31.31,31.31,0,0,0,128,147.58a11,11,0,0,0-.18-1.44,15.65,15.65,0,0,1-.17-2.53v-1.8a8.65,8.65,0,0,0-3.43-1.26,34.77,34.77,0,0,0-3.79-.18h-.72c-2.16,0-5.65.12-10.45.36a99.87,99.87,0,0,0-14.42,1.8,50.39,50.39,0,0,0-12.62,4.15Q76.82,149.38,76.83,154.07Zm22,76.43a4.13,4.13,0,0,1,1.26-2.52,17.11,17.11,0,0,1,3.07-2.71,39.91,39.91,0,0,1,3.78-2.34,7.2,7.2,0,0,1,3.07-1.08c1,1.2,2,2.65,3.24,4.32s2.29,3.13,3.25,4.33q3.24,4,6.67,8.11a70.28,70.28,0,0,0,7.21,7.57,52.06,52.06,0,0,0,7.57,5.77,14.47,14.47,0,0,0,7.75,2.35,39.72,39.72,0,0,0,6.31-.55c2.28-.36,4.51-.77,6.67-1.26a19.89,19.89,0,0,0,3.24-.9,19.73,19.73,0,0,1,3.61-.9,50.88,50.88,0,0,1,5.41-.54q3.24-.18,8.29-.18,0,10.46-3.79,17.48t-7.75,13.16c-1.2,1.93-2.47,4.09-3.78,6.49s-2.83,5-4.51,7.93H154.7q-6.13,0-15.5-8.11a170.58,170.58,0,0,1-18.39-18.74,162.61,162.61,0,0,1-15.5-21.46Q98.82,235.9,98.82,230.5Z" transform="translate(-12.66 -109.73)"/><path class="cls-1" d="M197,186.33a12.76,12.76,0,0,1-9.06-3.54,11.43,11.43,0,0,1,0-17,13.38,13.38,0,0,1,18.13,0,11.43,11.43,0,0,1,0,17A12.76,12.76,0,0,1,197,186.33ZM185.08,283.1V197.38h23.78V283.1Z" transform="translate(-12.66 -109.73)"/><path class="cls-1" d="M243.45,233.54V283.1H219.68V197.38h22.66V212.5h1a24.13,24.13,0,0,1,9.55-11.86q6.69-4.38,16.24-4.38a30.2,30.2,0,0,1,15.57,3.91A26.67,26.67,0,0,1,295,211.3a37.46,37.46,0,0,1,3.68,17.22V283.1H274.93V232.76c0-5.24-1.3-9.35-4-12.3S264.46,216,259.69,216a17,17,0,0,0-8.45,2.06,14.17,14.17,0,0,0-5.69,6A20.86,20.86,0,0,0,243.45,233.54Z" transform="translate(-12.66 -109.73)"/><path class="cls-1" d="M454.49,246.6V197.38h23.77V283.1H455.44V267.53h-.89a25.43,25.43,0,0,1-9.63,12.11q-6.74,4.58-16.38,4.58a28.87,28.87,0,0,1-15.13-3.91,26.72,26.72,0,0,1-10.18-11.1A38.06,38.06,0,0,1,399.52,252V197.38h23.77v50.34q.06,7.59,4.08,12a13.86,13.86,0,0,0,10.77,4.41,16.9,16.9,0,0,0,8-2,15.29,15.29,0,0,0,6.06-5.89A18.31,18.31,0,0,0,454.49,246.6Z" transform="translate(-12.66 -109.73)"/><path class="cls-1" d="M310,284.22V162.28h25.37V284.22Zm23-26.32.06-30.43h3.69L366,192.76h29.12l-39.36,46h-6Zm34.18,26.32-26.92-39.84,16.91-17.92,39.72,57.76Z" transform="translate(-12.66 -109.73)"/></svg>